<svg width="295" height="56" viewBox="0 0 295 56" fill="none" xmlns="http://www.w3.org/2000/svg">
<path d="M0.740767 55V0.454544H36.8558V9.96271H12.2731V22.9599H34.4588V32.468H12.2731V55H0.740767ZM59.8805 55.799C55.7434 55.799 52.1657 54.9201 49.1472 53.1623C46.1465 51.3867 43.8294 48.9187 42.1958 45.7582C40.5623 42.5799 39.7456 38.8956 39.7456 34.7053C39.7456 30.4794 40.5623 26.7862 42.1958 23.6257C43.8294 20.4474 46.1465 17.9794 49.1472 16.2216C52.1657 14.446 55.7434 13.5582 59.8805 13.5582C64.0176 13.5582 67.5865 14.446 70.5872 16.2216C73.6056 17.9794 75.9316 20.4474 77.5652 23.6257C79.1987 26.7862 80.0154 30.4794 80.0154 34.7053C80.0154 38.8956 79.1987 42.5799 77.5652 45.7582C75.9316 48.9187 73.6056 51.3867 70.5872 53.1623C67.5865 54.9201 64.0176 55.799 59.8805 55.799ZM59.9338 47.0099C61.8159 47.0099 63.3873 46.4773 64.6479 45.4119C65.9086 44.3288 66.8585 42.8551 67.4977 40.9908C68.1547 39.1264 68.4831 37.0046 68.4831 34.6254C68.4831 32.2461 68.1547 30.1243 67.4977 28.2599C66.8585 26.3956 65.9086 24.9219 64.6479 23.8388C63.3873 22.7557 61.8159 22.2141 59.9338 22.2141C58.0339 22.2141 56.4359 22.7557 55.1397 23.8388C53.8613 24.9219 52.8936 26.3956 52.2367 28.2599C51.5975 30.1243 51.2779 32.2461 51.2779 34.6254C51.2779 37.0046 51.5975 39.1264 52.2367 40.9908C52.8936 42.8551 53.8613 44.3288 55.1397 45.4119C56.4359 46.4773 58.0339 47.0099 59.9338 47.0099Z" fill="black"/>
<path d="M105.877 55.799C101.74 55.799 98.1618 54.9201 95.1433 53.1623C92.1426 51.3867 89.8255 48.9187 88.1919 45.7582C86.5584 42.5799 85.7417 38.8956 85.7417 34.7053C85.7417 30.4794 86.5584 26.7862 88.1919 23.6257C89.8255 20.4474 92.1426 17.9794 95.1433 16.2216C98.1618 14.446 101.74 13.5582 105.877 13.5582C110.014 13.5582 113.583 14.446 116.583 16.2216C119.602 17.9794 121.928 20.4474 123.561 23.6257C125.195 26.7862 126.012 30.4794 126.012 34.7053C126.012 38.8956 125.195 42.5799 123.561 45.7582C121.928 48.9187 119.602 51.3867 116.583 53.1623C113.583 54.9201 110.014 55.799 105.877 55.799ZM105.93 47.0099C107.812 47.0099 109.383 46.4773 110.644 45.4119C111.905 44.3288 112.855 42.8551 113.494 40.9908C114.151 39.1264 114.479 37.0046 114.479 34.6254C114.479 32.2461 114.151 30.1243 113.494 28.2599C112.855 26.3956 111.905 24.9219 110.644 23.8388C109.383 22.7557 107.812 22.2141 105.93 22.2141C104.03 22.2141 102.432 22.7557 101.136 23.8388C99.8574 24.9219 98.8897 26.3956 98.2328 28.2599C97.5936 30.1243 97.274 32.2461 97.274 34.6254C97.274 37.0046 97.5936 39.1264 98.2328 40.9908C98.8897 42.8551 99.8574 44.3288 101.136 45.4119C102.432 46.4773 104.03 47.0099 105.93 47.0099ZM148.464 55.6658C145.356 55.6658 142.542 54.8668 140.021 53.2688C137.517 51.6531 135.529 49.2827 134.055 46.1577C132.599 43.0149 131.871 39.1619 131.871 34.5987C131.871 29.9112 132.626 26.0138 134.135 22.9066C135.644 19.7816 137.65 17.4467 140.154 15.902C142.675 14.3395 145.436 13.5582 148.437 13.5582C150.727 13.5582 152.636 13.9489 154.163 14.7301C155.708 15.4936 156.951 16.4524 157.892 17.6065C158.851 18.7429 159.579 19.8615 160.076 20.9624H160.422V0.454544H171.741V55H160.555V48.4482H160.076C159.543 49.5845 158.789 50.712 157.812 51.8306C156.853 52.9315 155.601 53.8459 154.057 54.5739C152.53 55.3018 150.665 55.6658 148.464 55.6658ZM152.059 46.6371C153.888 46.6371 155.433 46.1399 156.693 45.1456C157.972 44.1335 158.948 42.7219 159.623 40.9109C160.316 39.0998 160.662 36.978 160.662 34.5455C160.662 32.1129 160.324 30 159.65 28.2067C158.975 26.4134 157.998 25.0284 156.72 24.0518C155.442 23.0753 153.888 22.587 152.059 22.587C150.195 22.587 148.623 23.093 147.345 24.1051C146.067 25.1172 145.099 26.5199 144.442 28.3132C143.785 30.1065 143.456 32.1839 143.456 34.5455C143.456 36.9247 143.785 39.0288 144.442 40.8576C145.117 42.6687 146.084 44.0891 147.345 45.119C148.623 46.131 150.195 46.6371 152.059 46.6371ZM232.333 0.454544H243.865V35.8771C243.865 39.8544 242.915 43.3345 241.015 46.3175C239.133 49.3004 236.496 51.6264 233.105 53.2955C229.714 54.9467 225.763 55.7724 221.253 55.7724C216.725 55.7724 212.766 54.9467 209.374 53.2955C205.983 51.6264 203.346 49.3004 201.464 46.3175C199.582 43.3345 198.641 39.8544 198.641 35.8771V0.454544H210.173V34.8917C210.173 36.9691 210.626 38.8157 211.532 40.4315C212.455 42.0472 213.751 43.3168 215.42 44.2401C217.089 45.1634 219.034 45.625 221.253 45.625C223.49 45.625 225.434 45.1634 227.086 44.2401C228.755 43.3168 230.042 42.0472 230.948 40.4315C231.871 38.8157 232.333 36.9691 232.333 34.8917V0.454544Z" fill="#F22E14"/>
<path d="M253.353 55V0.454544H274.873C279.01 0.454544 282.535 1.24467 285.446 2.82493C288.358 4.38743 290.578 6.5625 292.105 9.35014C293.65 12.12 294.422 15.3161 294.422 18.9382C294.422 22.5604 293.641 25.7564 292.078 28.5263C290.516 31.2962 288.252 33.4535 285.287 34.9982C282.339 36.543 278.77 37.3153 274.58 37.3153H260.864V28.0735H272.716C274.935 28.0735 276.764 27.6918 278.202 26.9283C279.658 26.147 280.741 25.0728 281.451 23.7056C282.179 22.3207 282.543 20.7315 282.543 18.9382C282.543 17.1271 282.179 15.5469 281.451 14.1974C280.741 12.8303 279.658 11.7738 278.202 11.0281C276.746 10.2646 274.9 9.88281 272.662 9.88281H264.885V55H253.353Z" fill="#353535"/>
</svg>
