<svg width="41" height="36" viewBox="0 0 41 36" fill="none" xmlns="http://www.w3.org/2000/svg">
<path d="M6.21429 0.5C3.0625 0.5 0.5 2.74219 0.5 5.5V30.5C0.5 33.2578 3.0625 35.5 6.21429 35.5H34.7857C37.9375 35.5 40.5 33.2578 40.5 30.5V5.5C40.5 2.74219 37.9375 0.5 34.7857 0.5H6.21429ZM14.3125 8.05469C15.1786 7.85156 16.0893 8.23438 16.4286 8.96094L18.2143 12.7109C18.5179 13.3516 18.3036 14.0859 17.6964 14.5234L15.5 16.1016C16.9821 18.8516 19.5268 21.0781 22.6696 22.375L24.4732 20.4453C24.9732 19.9141 25.8125 19.7266 26.5446 19.9922L30.8304 21.5547C31.6607 21.8594 32.0982 22.6484 31.8661 23.4063L30.7946 26.8438C30.5804 27.5313 29.875 28 29.0714 28C18.0268 28 9.07143 20.1641 9.07143 10.5C9.07143 9.79688 9.60714 9.17969 10.3839 8.99219L14.3125 8.05469Z" fill="#F22E14"/>
</svg>
